<?xml version="1.0" encoding="utf-8"?>
<svg xmlns="http://www.w3.org/2000/svg" xmlns:xlink="http://www.w3.org/1999/xlink" version="1.1" style="width:0;height:0;position:absolute;overflow:hidden;">
  <defs>
<symbol viewBox="0 0 1024 574" aria-labelledby="cmsi-ant-down-title" id="si-ant-down"><title id="cmsi-ant-down-title">icon down</title><path d="M1015 10q-10-10-23-10t-23 10L512 492 55 10Q45 0 32 0T9 10Q0 20 0 34t9 24l480 506q10 10 23 10t23-10l480-506q9-10 9-24t-9-24z"/></symbol>
<symbol viewBox="0 0 768 1024" aria-labelledby="dhsi-ant-file-text-title" id="si-ant-file-text"><title id="dhsi-ant-file-text-title">icon file-text</title><path d="M538 0H77Q45 0 22.5 21.5T0 73v878q0 30 22.5 51.5T77 1024h614q32 0 54.5-21.5T768 951V257zm143 256H512V67zm10 704H77q-5 0-9-3t-4-6V73q0-3 4-6t9-3h371v192q0 26 19 45t45 19h192v631q0 3-4 6t-9 3zM160 448h256q13 0 22.5-9.5T448 416t-9.5-22.5T416 384H160q-13 0-22.5 9.5T128 416t9.5 22.5T160 448zm448 128H160q-13 0-22.5 9.5T128 608t9.5 22.5T160 640h448q14 0 23-9.5t9-22.5-9-22.5-23-9.5zM416 832H160q-13 0-22.5-9.5T128 800t9.5-22.5T160 768h256q13 0 22.5 9.5T448 800t-9.5 22.5T416 832z"/></symbol>
<symbol viewBox="0 0 994 1024" aria-labelledby="dtsi-ant-home-title" id="si-ant-home"><title id="dtsi-ant-home-title">icon home</title><path d="M984 490L519 9q-10-9-23-9t-23 9L9 489q-9 9-9 22.5T9 534q9 10 22.5 10T54 534l58-58v484q0 27 19 45.5t45 18.5h639q27 0 45.5-18.5T879 960V476l60 60q10 9 23 9t22-9q10-10 10-23t-10-23zM433 960V704h127v256H433zm382 0H624V704q0-26-18.5-45T560 640H433q-26 0-45 19t-19 45v256H176V412L496 77l319 335v548z"/></symbol>
<symbol viewBox="0 0 1024 1024" aria-labelledby="fvsi-ant-setting-title" id="si-ant-setting"><title id="fvsi-ant-setting-title">icon setting</title><path d="M512 64q26 0 54 4l16 46 10 31 32 9q32 10 62 26l29 15 29-15 43-21q44 34 78 77l-22 43-14 30 15 29q15 30 26 62l9 31 31 11 46 15q4 29 4 54v1q0 26-4 54l-46 16-31 10-10 32q-9 32-25 62l-16 29 15 29 22 43q-18 23-36 42h-1q-18 18-41 36l-43-22-29-15-29 16q-30 15-62 25l-32 10-10 31-15 46q-29 4-55 4t-55-4l-15-46-10-31-32-10q-33-10-62-25l-29-16-29 15-43 22q-23-18-42-36-18-19-36-42l22-43 15-29-16-29q-16-31-25-62l-10-32-31-10-46-15q-4-29-4-55t4-55l46-15 31-10 9-32q10-32 26-62l15-29-14-29-22-43q34-44 77-78l44 22 29 15 29-16q30-15 62-26l32-9 10-31 15-46q30-4 55-4zm0-64q-37 0-81 7l-22 4-28 83q-39 12-73 30l-78-39-18 13q-66 48-115 114l-13 18 40 78q-19 36-31 73l-83 28-3 22q-7 44-7 81t7 81l3 22 83 28q12 38 31 73l-39 78 13 18q24 34 52 62 26 26 62 52l18 13 78-39q36 19 73 30l28 84 22 3q44 7 81 7t81-7l22-3 27-84q38-11 74-30l78 39 18-13q35-26 62-52 27-27 52-62l13-18-39-79q18-35 30-73l83-27 4-22q7-44 7-81t-7-81l-4-22-83-28q-12-38-30-73l39-78-13-18q-49-67-115-115l-18-13-78 39q-35-18-73-30l-27-83-22-3q-44-7-81-7zm0 386q52 0 89 37t37 89-37 89-89 37-89-37-37-89 37-89 89-37zm0-64q-79 0-134.5 55.5T322 512t55.5 134.5T512 702t134.5-55.5T702 512t-55.5-134.5T512 322z"/></symbol>
<symbol viewBox="0 0 1024 574" aria-labelledby="grsi-ant-up-title" id="si-ant-up"><title id="grsi-ant-up-title">icon up</title><path d="M1015 564q-10 10-23 10t-23-10L512 82 55 564q-10 10-23 10T9 564q-9-10-9-24t9-24L489 10q10-10 23-10t23 10l480 506q9 10 9 24t-9 24z"/></symbol>
  </defs>
</svg>
